# xmcd CD database file
#
# Track frame offsets:
#	150
#	21672
#	39244
#	55215
#	75202
#	94097
#	111305
#	126476
#	149239
#	166509
#	183106
#	197725
#
# Disc length: 2965 seconds
#
# Revision: 0
# Processed by: cddbd v1.5.2PL0 Copyright (c) Steve Scherf et al.
# Submitted via: CDex 1.70beta2
#
DISCID=a00b930c
DTITLE=Various Artist - Jazz And '70s
DYEAR=2008
DGENRE=Jazz
TTITLE0=Stella Starlight Trio - Time
TTITLE1=Cassandra Beck - Do Ya Think I'm Sexy?
TTITLE2=Renauld Feat. Karen Souza - Wake Up And Make Love With Me
TTITLE3=The Cooltrane Quartet - Smoke On The Water
TTITLE4=Karen Souza - Have You Ever Seen The Rain
TTITLE5=Eve St. Jones Feat Massey - Last Train To London
TTITLE6=Jazzystics Feat. Cassandra Beck - Don't Stop
TTITLE7=Apollinare Rossi - Just The Way You Are
TTITLE8=Anakelly - Show Me The Way
TTITLE9=Nu Men 4 Soul - You've Got A Friend
TTITLE10=48th St. Collective - Breakfast In America
TTITLE11=The Bryan J. White Quartet - Stairway To Heaven
EXTD=YEAR: 2008
EXTT0=
EXTT1=
EXTT2=
EXTT3=
EXTT4=
EXTT5=
EXTT6=
EXTT7=
EXTT8=
EXTT9=
EXTT10=
EXTT11=
PLAYORDER=
